<svg width="768" height="373" viewBox="0 0 768 373" fill="none" xmlns="http://www.w3.org/2000/svg">
<g opacity="0.8" clip-path="url(#clip0_176_2891)">
<path d="M210.56 143L338.88 15H480V79H365.12L301.12 143H560C640 143 704 207 704 287C704 367 640 431 560 431C488.96 431 430.08 379.16 418.56 311.64L350.72 271C352 276.44 352 281.56 352 287C352 367 288 431 208 431C128 431 64 367 64 287C64 207 128 143 208 143M485.12 311.32C496 343.64 525.44 367 560.96 367C605.12 367 640.96 331.16 640.96 287C640.96 242.84 605.12 207 560.96 207C525.12 207 496 230.68 485.12 263H576V311L485.12 311.32ZM208.96 367C253.12 367 288.96 331.16 288.96 287C288.96 242.84 253.12 207 208.96 207C187.743 207 167.394 215.429 152.391 230.431C137.389 245.434 128.96 265.783 128.96 287C128.96 308.217 137.389 328.566 152.391 343.569C167.394 358.571 187.743 367 208.96 367Z" fill="#FDECCF"/>
</g>
<defs>
<clipPath id="clip0_176_2891">
<rect width="768" height="390" fill="white" transform="matrix(-1 0 0 1 768 0)"/>
</clipPath>
</defs>
</svg>
